<svg id="Layer_1" data-name="Layer 1" xmlns="http://www.w3.org/2000/svg" viewBox="0 0 1050 1050"><defs><style>.cls-1{fill:#532299;}</style></defs><path class="cls-1" d="M850.22,474.47a134.42,134.42,0,0,0-250.78,56.21c-3.24,41.44-27.27,78.43-63,99.61l-2.12,1.26c-35.27,20.89-78,23.22-115.94,7.93-35.62-18.88-59.82-54.14-66-94.13l-.37-2.44c-6.41-41.69,8.38-83.4,38.38-113A134.18,134.18,0,0,0,428,309C414.71,239.1,348.14,191.33,277.7,201a134.43,134.43,0,0,0-41.41,253.65c37.23,18.46,62.59,54.56,68.9,95.64l.38,2.44c6.27,40.77-7.75,81.57-36.44,111.07a133.28,133.28,0,0,0-19,22.65c-.38.56-.75,1.11-1.11,1.67s-.81,1.25-1.2,1.88a133.76,133.76,0,0,0-19.4,89.14c0,.19,0,.38.08.57.21,1.55.46,3.11.73,4.68.11.63.21,1.27.33,1.9,0,.14,0,.27.07.4.06.35.15.7.22,1,.35,1.76.72,3.52,1.14,5.28.05.2.11.4.16.61A134,134,0,0,0,341,894.25l.16,0c2,.3,3.94.57,5.92.79.89.09,1.78.15,2.66.23,1.2.11,2.4.23,3.6.31,1.37.08,2.75.12,4.12.17.76,0,1.52.07,2.28.08,1.52,0,3,0,4.56,0,.66,0,1.32,0,2,0,1.42,0,2.84-.14,4.26-.24.79,0,1.57-.08,2.36-.15,1.21-.1,2.42-.25,3.62-.38,1-.11,2-.21,3-.34l.37,0c.83-.12,1.65-.28,2.47-.41,1.29-.2,2.58-.39,3.86-.63s2.56-.52,3.83-.8c.86-.18,1.73-.35,2.59-.56,1.83-.43,3.63-.91,5.42-1.41l.79-.22a133.86,133.86,0,0,0,68.24-45.85.64.64,0,0,0,.1-.13,134.21,134.21,0,0,0,28.73-76.38c4.31-40,28-75.45,62.69-96l2.13-1.26c36.28-21.5,80.51-23.34,119.21-6.57a134.17,134.17,0,0,0,126.21-10.21C866,615.8,885.48,536.21,850.22,474.47Z"/></svg>