<svg id="Layer_1" data-name="Layer 1" xmlns="http://www.w3.org/2000/svg" viewBox="0 0 827.18 191.38"><defs><style>.cls-1{fill:#532299;}</style></defs><path class="cls-1" d="M311.58,450.65q0,15-1.25,45t-1.25,45.15v86.62c0,2.36-1.27,3.55-3.81,3.55-2.1,0-5.28.08-9.53.26s-7.43.26-9.53.26q-3.42,0-10.25-.52t-10.26-.53c-1.57,0-3.46-1.45-5.65-4.34q-9.47-12.75-42.59-56.52-9.06-12.23-27.6-36a5.43,5.43,0,0,0-2-1.58,3.65,3.65,0,0,0-1,2.89q0,15.26.85,45.74t.86,45.75c0,3.06-1.19,4.6-3.55,4.6H139.52q-3.81,0-3.81-4.08,0-14.19,1.38-42.85t1.38-43q0-15.12-1.25-45.22T136,450.78q0-2.89,5.13-2.89,7.62,0,18.79-1.06,2.63-.25,10.39-1.71a63,63,0,0,1,10.38-1.18q1.58,0,4.86,4.47l49,67.17q6.57,9.06,19.85,26.55c2.19,2.72,4.07,4.07,5.65,4.07,1.14,0,1.71-3.41,1.71-10.25q0-13.8-1.51-41.53t-1.51-41.67q0-4.86,2.76-4.86,7.89,0,23.79-.66t23.79-.66C310.74,446.57,311.58,447.93,311.58,450.65Z" transform="translate(-135.71 -441.97)"/><path class="cls-1" d="M383.74,570.65q0,9.6.4,28.59t.39,28.46q0,2.76-3.29,3.29-4.47.78-20.11.78T340.89,631c-1.93-.35-3.11-.92-3.55-1.71a14.88,14.88,0,0,1-.26-3.95q0-9.06.39-27.27t.4-27.41q0-37.32-2.89-59.41-.27-2.1-.27-2.76c0-1.75,1.19-2.63,3.55-2.63s6.2.26,11.24.79,8.83.79,11.37.79,6.35-.22,11.44-.66,8.89-.66,11.43-.66c2.1,0,3.16.88,3.16,2.63a25.14,25.14,0,0,1-.27,2.5A536.1,536.1,0,0,0,383.74,570.65ZM387.16,473q0,22.88-25.76,22.87-11.06,0-18.28-5.78-7.87-6.31-7.88-17.09a20.64,20.64,0,0,1,8.15-16.82,27.76,27.76,0,0,1,18-6.05,27,27,0,0,1,17.74,6.18A20.67,20.67,0,0,1,387.16,473Z" transform="translate(-135.71 -441.97)"/><path class="cls-1" d="M497.05,592.47a107.37,107.37,0,0,1-1,12,107.37,107.37,0,0,0-1,11.77q0,3.75-.78,4.8a16.05,16.05,0,0,1-4.34,3,76.71,76.71,0,0,1-37.6,9.33q-38,0-38-29.05,0-8.67.65-26.09t.66-26.09q0-5.79-6.7-5.78h-1.71c-.79.08-1.36.13-1.71.13-3.33,0-5-1.19-5-3.55,0-1.4.1-3.55.32-6.44s.33-5,.33-6.44q0-2.76-.33-8.42c-.22-3.76-.32-6.57-.32-8.41s2.8-2.71,8.41-2.89q4.72-.12,5.12-2.63a96.92,96.92,0,0,0,.53-15.77q-.53-16.95-.53-16.17,0-15.24,2.9-15.25a47.21,47.21,0,0,1,10.12,1.58,92.4,92.4,0,0,0,10.38,2q6.71.93,20.24,2.5c2.19.18,3.29.92,3.29,2.24q0,5.25-.85,15.9t-.86,16q0,6.43,3.81,6.44,4.61,0,13.94-.4t14.06-.39c1.93,0,2.89.65,2.89,2q0,3-.66,9.07t-.65,9.07q0,3.15.13,9.2t.13,9.2q0,2.76-3.81,2.76c-1.76,0-4.69-.06-8.81-.2s-7.05-.19-8.81-.19h-9.85c-1.32,0-2,1.92-2,5.78v9.33q.14,6.32.14,9.34,0,11,2.49,15.24,3.56,5.65,13.94,5.66a42.49,42.49,0,0,0,9.4-1.52,42.66,42.66,0,0,1,8.61-1.51C496.13,589.58,497.05,590.55,497.05,592.47Z" transform="translate(-135.71 -441.97)"/><path class="cls-1" d="M642,535.69l-.27,90.7c0,3.06-1.22,4.77-3.68,5.12q-4.2.53-19.19.53-14.46,0-20.11-1c-2.89-.53-4.33-2.41-4.33-5.66q0-11.3.39-34t.39-34q0-15.39-15.64-15.38-5.25,0-12.35,4.2-7.77,4.6-7.76,9.6v32.47q0,6.3.26,19t.27,19c0,3.25-1.36,5-4.08,5.39s-10.34.53-22.87.53q-10.78,0-15.51-1c-3.15-.7-4.73-2.24-4.73-4.6q0-10.38.13-31.22t.13-31.22q0-43-.92-71.11-.39-9.85-.66-19.72a133.42,133.42,0,0,0-2.36-19.58,12.13,12.13,0,0,1-.4-2.5,2.58,2.58,0,0,1,2-2.63,51.51,51.51,0,0,1,12-1.44q10.52-.41,12.22-.66l23.79-2.76c1.4,0,2.11.92,2.11,2.76q0,4.2-.53,11.43-.53,8.42-.53,11.44-.78,29.7-.78,46.92c0,1.76.43,2.63,1.31,2.63.17,0,2.41-1.53,6.7-4.6a89.54,89.54,0,0,1,14.59-8.54,49.47,49.47,0,0,1,20.11-4.6q16.83,0,28.13,8.81Q642,519.25,642,535.69Z" transform="translate(-135.71 -441.97)"/><path class="cls-1" d="M798.71,511.5q0,9.74-.92,29.18t-.92,29.19q0,9.45.66,28.39t.65,28.26A4.19,4.19,0,0,1,794.9,631q-5,1.31-21.17,1.31-14.33,0-20-.79a3.71,3.71,0,0,1-3.15-3.15c-.26-2.63-.53-5.26-.79-7.89q-.66-6-1.84-6.05,1.85,0-13.27,8.94t-27.48,8.94q-34.83,0-41.27-31.41-2.9-14.6-2.89-42.33,0-30,4.86-47.32c1-3.59,2.76-5.39,5.39-5.39q6,0,18.4.13t18.41.13q4.07,0,4.07,3.42a22.07,22.07,0,0,1-.26,2.76,237.44,237.44,0,0,0-2.76,36.28q0,22.88,1.44,31.29,2.37,14.45,17.22,14.45,5.79,0,12.56-5.12t7-10.65q.26-4.86.26-66,0-4.35.66-5.13.78-1.32,4.73-1.32,6.43,0,19.39.14t19.39.13c2.63,0,4.16.65,4.6,2A14.33,14.33,0,0,1,798.71,511.5Z" transform="translate(-135.71 -441.97)"/><path class="cls-1" d="M962.88,566.71q0,27.6-15.77,46.14-16.83,19.71-43.9,19.71-19.73,0-31.81-11.3a2.65,2.65,0,0,0-1.58-.79q-1.32,0-2.43,4.86c-.75,3.25-1.65,5-2.7,5.39q-2.24.66-37.46.66-8.28,0-8.28-3a18,18,0,0,1,.26-2q2.64-20.91,2.63-79.66,0-56.12-3.94-97.66l-.13-1.45c0-1.4,1.35-2.19,4.07-2.36q2.89-.13,22.87-2,14.07-1.3,22.88-1.31,2.49,0,2.49,4.34,0,5.13-.65,13.54-.79,10.38-.92,13.67-.66,13-.66,35.49,0,4.07,2.1,4.07a2.62,2.62,0,0,0,2-1.05q11.83-12.61,31-12.62,28.78,0,45,19.59Q962.89,537.14,962.88,566.71Zm-47.58-1.45a26.87,26.87,0,0,0-6.7-18.46q-6.71-7.56-17.49-7.56-11,0-17.41,7.56t-6.38,18.73q0,11.57,6.18,18.66,6.57,7.5,17.88,7.5t17.74-7.76Q915.3,576.7,915.3,565.26Z" transform="translate(-135.71 -441.97)"/></svg>